# xmcd
#
# Track frame offsets: 
#        150
#        19812
#        36810
#        50835
#        64752
#        82080
#        99095
#        124917
#        139045
#        161087
#        180097
#        197277
#        220320
#
# Disc length: 3165 seconds
#
# Revision: 8
# Processed by: cddbd v1.5.1PL0 Copyright (c) Steve Scherf et al.
# Submitted via: ExactAudioCopy v0.95a5
#
DISCID=ad0c5b0d
DTITLE=The Mavericks - Trampoline
DYEAR=1998
DGENRE=Country
TTITLE0=Dance The Night Away
TTITLE1=Tell Me Why
TTITLE2=I Should Know
TTITLE3=Someone Should Tell Her
TTITLE4=To Be With You
TTITLE5=I've Got This Feeling
TTITLE6=Fool #1
TTITLE7=I Don't Even Know Your Name
TTITLE8=I Hope You Want Me Too
TTITLE9=Melbourne Mambo
TTITLE10=Dolores
TTITLE11=Save A Prayer
TTITLE12=Dream River
EXTD=
EXTT0=
EXTT1=
EXTT2=
EXTT3=
EXTT4=
EXTT5=
EXTT6=
EXTT7=
EXTT8=
EXTT9=
EXTT10=
EXTT11=
EXTT12=
PLAYORDER=
